<svg xmlns="http://www.w3.org/2000/svg" version="1.1" xmlns:xlink="http://www.w3.org/1999/xlink" width="512" height="512"><svg id="SvgjsSvg1005" xmlns="http://www.w3.org/2000/svg" viewBox="0 0 512 512"><defs><style>.cls-1{fill:#ffb319;}.cls-2{fill:none;}.cls-3{fill:#b77f2e;}</style><style class="darkreader darkreader--sync" media="screen"></style></defs><path class="cls-1" d="M496,55.3v401.4c0,21.7-17.6,39.3-39.3,39.3H55.3c-21.7,0-39.3-17.6-39.3-39.3V158.01c0-9.12,4.07-17.29,10.5-22.8,5.24-4.49,12.06-7.21,19.51-7.21h64.18c9.84,0,17.81-7.97,17.81-17.81V46.01c0-7.48,2.73-14.31,7.26-19.56.98-1.14,2.05-2.21,3.19-3.19,5.25-4.53,12.08-7.26,19.56-7.26h298.69c21.7,0,39.3,17.6,39.3,39.3Z"></path><path class="cls-3" d="M135.26,26.45c-4.53,5.25-7.26,12.08-7.26,19.56v64.18c0,9.84-7.97,17.81-17.81,17.81H46.01c-7.45,0-14.27,2.72-19.51,7.21L135.26,26.45Z"></path><polyline class="cls-2" points="139.58 22.13 138.45 23.26 135.26 26.45"></polyline><path d="M96.43,356.29c.28-.56,1.4-1.82,3.37-3.79,1.96-1.96,3.5-3.37,4.63-4.21.56-.56,1.4-1.12,2.52-1.68,1.12-.56,1.96-.84,2.52-.84.28,0,2.1-.07,5.47-.21,3.37-.14,5.89-.21,7.57-.21s4.21.07,7.57.21c3.37.14,5.19.21,5.47.21s1.12.42,2.52,1.26c1.4.84,2.24,1.26,2.52,1.26,1.12.57,3.01,1.12,5.68,1.68,2.66.57,4.27.84,4.84.84.28,0,1.26.07,2.94.21,1.68.14,2.8.21,3.37.21.84,0,2.1-.07,3.79-.21,1.68-.14,2.66-.21,2.94-.21s1.4-.28,3.37-.84c1.96-.56,3.37-1.12,4.21-1.68,1.4-.56,3.37-1.47,5.89-2.73,2.52-1.26,4.06-2.03,4.63-2.31,1.4-1.12,3.37-3.01,5.89-5.68,2.52-2.66,4.06-4.27,4.63-4.84v-13.04c-.28-.56-.7-1.4-1.26-2.52-.57-1.12-1.12-1.96-1.68-2.52-.57-.84-2.18-2.59-4.84-5.26-2.67-2.66-4.42-4.42-5.26-5.26-.57-.28-1.83-1.05-3.79-2.31-1.97-1.26-3.37-2.17-4.21-2.73-.57-.56-1.47-1.12-2.73-1.68-1.26-.56-2.04-.98-2.31-1.26-.57,0-2.31-.35-5.26-1.05-2.94-.7-4.7-1.19-5.26-1.47-.56,0-1.68-.42-3.37-1.26-1.68-.84-3.58-1.68-5.68-2.52-2.1-.84-4.07-1.61-5.89-2.31-1.83-.7-2.88-1.19-3.15-1.47-.28,0-1.05-.28-2.31-.84-1.26-.56-2.67-1.12-4.21-1.68-1.54-.56-2.94-1.12-4.21-1.68-1.26-.56-2.04-.98-2.31-1.26-.56-.28-2.17-1.4-4.84-3.37-2.67-1.96-4.56-3.36-5.68-4.21-1.12-1.12-2.94-3.01-5.47-5.68-2.52-2.66-4.07-4.27-4.63-4.84-.28-.28-1.12-1.68-2.52-4.21-1.41-2.52-2.39-4.48-2.94-5.89-.57-1.68-1.54-4.21-2.94-7.57-1.41-3.37-2.1-5.19-2.1-5.47,0-.56-.07-2.8-.21-6.73-.14-3.92-.21-6.87-.21-8.83,0-2.24.07-5.32.21-9.25.14-3.92.21-6.03.21-6.31,0-.84.21-2.03.63-3.58.42-1.54.91-3.15,1.47-4.84.56-1.68,1.12-3.15,1.68-4.42.56-1.26.98-2.17,1.26-2.73.28-.28,1.05-1.12,2.31-2.52,1.26-1.4,2.73-2.94,4.42-4.63s3.37-3.36,5.05-5.05,2.94-2.94,3.79-3.79c1.12-.84,3.01-2.24,5.68-4.21,2.66-1.96,4.27-3.08,4.84-3.37,3.08-.84,5.53-1.54,7.36-2.1,1.82-.56,3.71-1.12,5.68-1.68,1.96-.56,3.64-.98,5.05-1.26,2.8-.84,6.38-1.89,10.73-3.15,4.34-1.26,8.55-2.38,12.62-3.37,4.06-.98,7.64-1.89,10.73-2.73,3.08-.84,4.76-1.26,5.05-1.26s1.75-.07,4.42-.21c2.66-.14,4.69-.21,6.1-.21s3.37.07,5.89.21c2.52.14,3.92.21,4.21.21.56,0,2.24.7,5.05,2.1,2.8,1.41,4.63,2.39,5.47,2.94.56.57,1.89,1.83,4,3.79,2.1,1.97,3.43,3.37,4,4.21.56.84,1.4,2.04,2.52,3.58,1.12,1.54,2.17,3.15,3.15,4.84.98,1.68,1.96,3.23,2.94,4.63.98,1.41,1.47,2.25,1.47,2.52.28,1.68.42,2.81.42,3.36s-.14,1.97-.42,4.21c0,.56-.28,1.47-.84,2.73-.57,1.26-1.12,2.18-1.68,2.73-.56.84-1.68,2.1-3.37,3.79-1.68,1.68-3.51,3.51-5.47,5.47-1.96,1.96-3.79,3.79-5.47,5.47-1.68,1.68-2.95,2.81-3.79,3.36-1.41,0-4,.07-7.78.21-3.79.14-7.72.35-11.78.63-4.07.28-7.99.57-11.78.84-3.79.28-6.38.57-7.78.84-.84.28-2.88,1.05-6.1,2.31-3.23,1.26-5.54,2.18-6.94,2.73-.57.56-1.47,1.47-2.73,2.73s-2.04,2.18-2.31,2.73c-.28,1.41-.42,2.25-.42,2.52,0,.57.14,1.41.42,2.52.28.57,1.4,1.83,3.37,3.79,1.96,1.97,3.5,3.37,4.63,4.21,2.8,1.41,4.48,2.25,5.05,2.52.28,0,1.05.28,2.31.84,1.26.56,2.66,1.12,4.21,1.68,1.54.56,2.94,1.12,4.21,1.68,1.26.57,2.03.84,2.31.84,1.12.57,2.8,1.41,5.05,2.52,2.24,1.12,4.48,2.25,6.73,3.37,2.24,1.12,4.21,2.1,5.89,2.94,1.68.84,2.66,1.41,2.94,1.68.28,0,1.54.91,3.79,2.73,2.24,1.83,4.9,4,7.99,6.52,3.08,2.52,6.17,5.05,9.25,7.57,3.08,2.52,5.61,4.63,7.57,6.31.28.28.77.78,1.47,1.47.7.7,1.05,1.2,1.05,1.47.56.28,1.47,1.47,2.73,3.58,1.26,2.1,2.17,3.44,2.73,4,.28.28.91,1.05,1.89,2.31.98,1.26,2.03,2.67,3.16,4.21,1.12,1.54,2.17,2.94,3.15,4.21.98,1.26,1.61,2.04,1.89,2.31.56.84,1.54,2.25,2.94,4.21,1.4,1.97,2.24,3.23,2.52,3.79l2.52,7.57v10.52c-.84,3.09-1.54,5.61-2.1,7.57-.57,1.97-1.2,3.93-1.89,5.89-.7,1.97-1.2,3.51-1.47,4.63-.28.84-.7,2.25-1.26,4.21-.57,1.96-.99,3.23-1.26,3.79-.57.84-1.41,2.6-2.52,5.26-1.12,2.67-1.96,4.28-2.52,4.84-.57,1.12-1.89,3.02-4,5.68-2.1,2.67-3.44,4.28-4,4.84s-1.68,1.62-3.37,3.15c-1.68,1.54-3.51,3.16-5.47,4.84-1.97,1.68-3.79,3.23-5.47,4.63-1.68,1.41-2.94,2.39-3.79,2.94-.28.28-1.68,1.05-4.21,2.31-2.52,1.26-4.49,2.18-5.89,2.73-1.12.56-2.6,1.26-4.42,2.1-1.83.84-3.72,1.68-5.68,2.52-1.97.84-3.79,1.54-5.47,2.1-1.68.57-2.67.99-2.94,1.26-.84.28-2.6.78-5.26,1.47-2.67.7-4.28,1.05-4.84,1.05s-2.6.07-6.1.21c-3.51.14-6.1.21-7.78.21s-4.07-.07-7.15-.21c-3.09-.14-4.77-.21-5.05-.21s-1.68-.28-4.21-.84c-2.52-.56-5.47-1.26-8.83-2.1-3.37-.84-6.73-1.75-10.09-2.73-3.37-.98-6.03-1.75-7.99-2.31-1.12-.28-2.67-.7-4.63-1.26-1.97-.56-3.09-.98-3.37-1.26-.57-.56-2.18-2.1-4.84-4.63-2.67-2.52-4.42-4.34-5.26-5.47-.28-.28-.78-1.12-1.47-2.52-.7-1.4-1.2-2.38-1.47-2.94-.28-.84-.78-2.24-1.47-4.21-.7-1.96-1.05-3.08-1.05-3.36,0-.56-.07-2.03-.21-4.42-.15-2.38-.21-4.27-.21-5.68s.14-4.06.42-7.99Z"></path><path d="M309.69,365.12c-.28-4.48-.56-9.18-.84-14.09-.28-4.9-.57-9.6-.84-14.09-.28-4.48-.56-7.57-.84-9.25,0-.84-.07-2.1-.21-3.79-.15-1.68-.36-3.5-.63-5.47-.28-1.96-.56-3.79-.84-5.47-.28-1.68-.57-2.8-.84-3.37-.28-.84-.84-3.08-1.68-6.73-.84-3.64-1.83-7.71-2.95-12.2-1.12-4.48-2.18-8.83-3.15-13.04-.99-4.21-1.76-7.43-2.31-9.67-.28-.56-.78-1.89-1.47-4-.7-2.1-1.2-3.43-1.47-4,0-.56-.28-1.75-.84-3.58-.56-1.82-1.12-3.85-1.68-6.1-.57-2.24-1.05-4.42-1.47-6.52-.42-2.1-.78-3.58-1.05-4.42,0-.56-.28-1.96-.84-4.21-.57-2.24-1.12-4.69-1.68-7.36-.56-2.66-1.12-5.19-1.68-7.57-.57-2.38-.84-3.85-.84-4.42-.28-.56-.7-1.82-1.26-3.79-.57-1.96-.99-3.22-1.26-3.79-.57-.84-1.2-2.03-1.89-3.58-.7-1.54-1.47-3.15-2.31-4.84s-1.62-3.22-2.31-4.63c-.7-1.4-1.2-2.24-1.47-2.52-.28-.56-1.54-1.89-3.79-4-2.25-2.1-3.51-3.43-3.79-4-1.12-1.4-2.67-4.06-4.63-7.99-1.96-3.92-3.09-6.45-3.36-7.57,0-.28-.07-1.54-.21-3.79-.14-2.24-.21-3.92-.21-5.05,0-.84.07-2.45.21-4.84.14-2.38.21-3.85.21-4.42.56-.56,1.4-1.47,2.52-2.73,1.12-1.26,1.96-2.03,2.52-2.31.56-.28,1.47-.77,2.74-1.47,1.26-.7,2.17-1.05,2.73-1.05,1.12-.56,2.95-1.12,5.47-1.68,2.52-.56,4.06-.98,4.63-1.26h18.51c.28,0,1.12.14,2.52.42,1.4.28,2.95.56,4.63.84,1.68.28,3.29.56,4.84.84,1.54.28,2.73.56,3.58.84.28,0,1.19.21,2.73.63,1.54.42,3.29.91,5.26,1.47,1.96.56,3.92,1.12,5.89,1.68,1.96.56,3.37.99,4.21,1.26,1.96.57,4.9,1.47,8.83,2.73,3.92,1.26,6.16,2.04,6.73,2.31.56.28,1.75.91,3.57,1.89,1.82.99,3.85,2.04,6.1,3.15,2.24,1.12,4.42,2.18,6.52,3.15,2.1.99,3.58,1.75,4.42,2.31.28,0,.98.35,2.1,1.05,1.12.7,2.38,1.47,3.79,2.31,1.4.84,2.8,1.68,4.21,2.52,1.4.84,2.38,1.54,2.95,2.1.84.56,2.24,1.41,4.21,2.52,1.96,1.12,3.22,1.97,3.79,2.52,1.12.84,2.87,2.25,5.26,4.21,2.38,1.96,4.84,3.86,7.36,5.68,2.52,1.83,4.77,3.58,6.73,5.26,1.96,1.68,3.22,2.67,3.79,2.94.84.56,2.59,2.25,5.26,5.05,2.66,2.81,4.42,4.63,5.26,5.47.56.57,1.4,1.83,2.52,3.79,1.12,1.97,1.96,3.23,2.52,3.79,2.24,3.93,4.13,7.72,5.68,11.36,1.54,3.65,2.31,7.85,2.31,12.62v4.63c0,.28-.35,1.2-1.05,2.73-.7,1.54-1.47,3.3-2.31,5.26-.84,1.96-1.68,3.86-2.52,5.68-.84,1.83-1.54,3.3-2.1,4.42-.56,1.41-1.41,3.23-2.52,5.47-1.12,2.25-2.25,4.49-3.37,6.73-1.12,2.25-2.1,4.21-2.94,5.89s-1.26,2.67-1.26,2.94c-.57.57-1.47,1.54-2.73,2.94-1.26,1.41-2.73,2.94-4.42,4.63-1.68,1.68-3.3,3.3-4.84,4.84s-2.73,2.6-3.58,3.16l-4.63,2.31c-2.52,1.26-4.49,2.18-5.89,2.73-.56.56-2.52,1.47-5.89,2.73-3.37,1.26-5.75,2.18-7.15,2.73-.57,0-1.89.36-4,1.05-2.1.7-3.44,1.2-4,1.47-.28.28-1.05.7-2.31,1.26-1.26.56-2.17.99-2.73,1.26v7.57c0,8.98,1.33,17.88,3.99,26.71,2.66,8.83,4,17.74,4,26.71v6.31c-.28.57-.7,1.83-1.26,3.79-.56,1.96-1.12,3.37-1.68,4.21-.28.57-.7,1.47-1.26,2.73-.57,1.26-.99,2.04-1.26,2.31-.57.57-1.41,1.47-2.52,2.73-1.12,1.26-1.97,2.17-2.53,2.73-1.12.57-3.02,1.47-5.68,2.73-2.67,1.26-4.28,2.04-4.84,2.31-.28,0-1.41.07-3.37.21-1.96.14-3.37.21-4.21.21-1.12,0-2.67-.07-4.63-.21-1.96-.14-3.09-.21-3.37-.21-.84-.28-2.6-1.05-5.26-2.31-2.67-1.26-4.28-2.17-4.84-2.73-.56-.56-1.83-2.1-3.79-4.63-1.96-2.52-3.37-4.48-4.21-5.89-.28-.28-.7-1.05-1.26-2.31-.56-1.26-.99-2.17-1.26-2.73-.28-.56-.78-1.89-1.47-4-.7-2.1-1.05-3.43-1.05-4,0-1.68-.14-4.77-.42-9.25ZM330.73,215.8c.28,1.12.63,2.81,1.05,5.05.42,2.25.91,4.63,1.47,7.15.56,2.52,1.12,4.84,1.68,6.94.56,2.1.84,3.58.84,4.42.28.56.7,1.83,1.26,3.79.56,1.97,1.12,3.37,1.68,4.21.56,1.41,1.19,2.81,1.89,4.21.7,1.41,1.75,2.52,3.15,3.37.56.57,1.47,1.12,2.73,1.68,1.26.56,2.03.84,2.31.84s1.4-.28,3.37-.84c1.96-.56,3.5-1.12,4.63-1.68.56-.28,1.47-.7,2.73-1.26,1.26-.56,2.03-.98,2.31-1.26,1.4-1.12,3.36-3.01,5.89-5.68,2.52-2.66,4.06-4.27,4.63-4.84v-7.57c-.28-.56-.7-1.47-1.26-2.73-.57-1.26-.99-2.17-1.26-2.73l-13.04-13.04c-.56-.28-1.47-.77-2.73-1.47-1.26-.7-2.73-1.47-4.42-2.31s-3.3-1.61-4.84-2.31c-1.54-.7-2.73-1.19-3.57-1.47-.28,0-.7-.07-1.26-.21-.57-.14-1.12-.21-1.68-.21-.28,0-.7.07-1.26.21-.56.14-.99.21-1.26.21l-5.05,5.05v2.52Z"></path></svg><style>@media (prefers-color-scheme: light) { :root { filter: none; } }
@media (prefers-color-scheme: dark) { :root { filter: none; } }
</style></svg>